<?xml version="1.0" encoding="UTF-8" standalone="no"?>
<!-- Created with Inkscape (http://www.inkscape.org/) -->

<svg
   width="1080"
   height="1080"
   viewBox="0 0 1080 1080"
   version="1.1"
   id="svg1"
   xmlns="http://www.w3.org/2000/svg"
   xmlns:svg="http://www.w3.org/2000/svg">
  <defs
     id="defs1" />
  <g
     id="layer2">
    <path
       style="fill:#17ff00;fill-opacity:1;stroke:none;stroke-width:12.7253;stroke-linecap:round;stroke-linejoin:round;stroke-miterlimit:5.3;stroke-dasharray:none;stroke-opacity:1;paint-order:markers fill stroke"
       d="m 549.70715,394.82303 -3.44549,439.64312 157.80296,-50.30399 49.6149,-123.34816 2.06728,-219.82154 -23.42925,-70.97687 -54.43856,-16.5383 -20.6729,24.80745 -94.40611,11.02552 z"
       id="path20" />
    <path
       style="fill:#0d9500;fill-opacity:1;stroke:none;stroke-width:12.7253;stroke-linecap:round;stroke-linejoin:round;stroke-miterlimit:5.3;stroke-dasharray:none;stroke-opacity:1;paint-order:markers fill stroke"
       d="m 325.06193,400.3358 82.00239,-59.26224 38.58937,30.32022 102.67527,18.60558 -2.0673,447.91226 L 445.65369,815.17147 361.584,753.84194 336.77656,642.89751 336.08746,490.60735 Z"
       id="path19" />
    <path
       style="fill:none;fill-opacity:1;stroke:#000000;stroke-width:31.8133;stroke-linecap:round;stroke-linejoin:round;stroke-miterlimit:5.3;stroke-dasharray:none;stroke-opacity:1;paint-order:markers fill stroke"
       d="m 328.51954,415.31706 c -1.79824,-116.17935 422.28374,-113.74774 422.94541,0 v 243.63217 c -1.18481,229.65256 -413.32832,226.63331 -415.14917,0 z"
       id="path1" />
    <path
       style="fill:#0d9500;fill-opacity:1;stroke:none;stroke-width:12.7253;stroke-linecap:round;stroke-linejoin:round;stroke-miterlimit:5.3;stroke-dasharray:none;stroke-opacity:1;paint-order:markers fill stroke"
       d="m 548.32896,392.06664 2.06729,-173.65212 -60.64044,11.71461 -59.9513,24.11835 -18.60561,55.81676 8.26915,48.92582 88.89337,30.3202 z"
       id="path17" />
    <path
       style="fill:#41ff00;fill-opacity:1;stroke:none;stroke-width:12.7253;stroke-linecap:round;stroke-linejoin:round;stroke-miterlimit:5.3;stroke-dasharray:none;stroke-opacity:1;paint-order:markers fill stroke"
       d="m 547.63987,391.37755 0.68909,-168.82846 95.78432,26.18565 31.69841,41.34573 5.51274,64.77502 -45.4803,27.56383 z"
       id="path18" />
    <path
       style="fill:none;fill-opacity:1;stroke:#000000;stroke-width:21.2088;stroke-linecap:round;stroke-linejoin:round;stroke-miterlimit:5.3;stroke-dasharray:none;stroke-opacity:1;paint-order:markers fill stroke"
       d="m 411.35446,338.32931 c 0.72982,-55.60394 7.10541,-111.99903 135.45948,-116.94343 103.50876,5.05615 136.78193,47.3486 134.48495,126.68872 -1.62705,57.61541 -269.03898,54.86102 -269.94443,-9.74529 z"
       id="path2" />
    <path
       style="fill:none;fill-opacity:1;stroke:#000000;stroke-width:31.8133;stroke-linecap:round;stroke-linejoin:round;stroke-miterlimit:5.3;stroke-dasharray:none;stroke-opacity:1;paint-order:markers fill stroke"
       d="m 457.15731,133.6783 c -3.39279,115.11473 177.65017,103.35714 176.38969,0"
       id="path3" />
    <path
       style="fill:none;stroke:#000000;stroke-width:31.3838;stroke-linecap:round;stroke-linejoin:round;stroke-miterlimit:5.3;stroke-dasharray:none;stroke-opacity:1;paint-order:markers fill stroke"
       d="M 546.81394,829.9184 V 401.24697"
       id="path4" />
    <path
       style="fill:none;stroke:#000000;stroke-width:31.8133;stroke-linecap:round;stroke-linejoin:round;stroke-miterlimit:5.3;stroke-dasharray:none;stroke-opacity:1;paint-order:markers fill stroke"
       d="M 758.28664,427.49869 C 833.8022,424.28771 877.94597,393.13584 877.17909,281.31938"
       id="path5" />
    <path
       style="fill:none;stroke:#000000;stroke-width:31.8133;stroke-linecap:round;stroke-linejoin:round;stroke-miterlimit:5.3;stroke-dasharray:none;stroke-opacity:1;paint-order:markers fill stroke"
       d="m 883.31067,554.57503 c -163.31571,0 -125.49658,-1.25997 -125.49658,-1.25997 l 7.58004,0.68909"
       id="path6" />
    <path
       style="fill:none;stroke:#000000;stroke-width:31.8133;stroke-linecap:round;stroke-linejoin:round;stroke-miterlimit:5.3;stroke-dasharray:none;stroke-opacity:1;paint-order:markers fill stroke"
       d="m 324.37282,552.62595 -124.7872,2.0673"
       id="path7" />
    <path
       style="fill:none;stroke:#000000;stroke-width:31.8133;stroke-linecap:round;stroke-linejoin:round;stroke-miterlimit:5.3;stroke-dasharray:none;stroke-opacity:1;paint-order:markers fill stroke"
       d="M 321.61646,426.52144 C 241.17663,420.9059 201.77519,376.76454 211.36114,286.635"
       id="path8" />
    <path
       style="fill:none;stroke:#000000;stroke-width:31.8133;stroke-linecap:round;stroke-linejoin:round;stroke-miterlimit:5.3;stroke-dasharray:none;stroke-opacity:1;paint-order:markers fill stroke"
       d="M 213.42842,817.92785 C 207.7611,741.69346 227.34867,687.47123 327.81831,675.28503"
       id="path9" />
    <path
       style="fill:none;stroke:#000000;stroke-width:31.8133;stroke-linecap:round;stroke-linejoin:round;stroke-miterlimit:5.3;stroke-dasharray:none;stroke-opacity:1;paint-order:markers fill stroke"
       d="m 757.31212,675.02895 c 79.62909,8.37689 124.94592,44.83296 120.35435,145.20475"
       id="path10" />
    <path
       style="fill:#000000;fill-opacity:1;stroke:#000000;stroke-width:12.7253;stroke-linecap:round;stroke-linejoin:round;stroke-miterlimit:5.3;stroke-dasharray:none;stroke-opacity:1;paint-order:markers fill stroke"
       d="M 540.96544,782.00316 570.44041,765.954 c 26.13151,-23.33869 33.60397,-55.30954 34.66753,-90.24531 3.70573,30.89331 6.80036,61.68931 -17.5585,88.1147 l -34.49917,29.74347"
       id="path14" />
    <path
       style="fill:#000000;fill-opacity:1;stroke:#000000;stroke-width:12.7253;stroke-linecap:round;stroke-linejoin:round;stroke-miterlimit:5.3;stroke-dasharray:none;stroke-opacity:1;paint-order:markers fill stroke"
       d="m 540.9097,636.14186 29.47498,-16.04914 c 26.1315,-23.3387 33.60397,-55.30955 34.66753,-90.24533 3.70573,30.89331 6.80035,61.68932 -17.5585,88.11471 l -33.03738,32.17976"
       id="path14-2" />
    <path
       style="fill:#000000;fill-opacity:1;stroke:#000000;stroke-width:12.7253;stroke-linecap:round;stroke-linejoin:round;stroke-miterlimit:5.3;stroke-dasharray:none;stroke-opacity:1;paint-order:markers fill stroke"
       d="m 553.3932,706.0513 -33.18606,-5.00356 c -32.53655,-12.99695 -50.49031,-40.4858 -63.43521,-72.95224 7.08086,30.29836 14.70269,60.29635 46.6289,76.80006 l 30.60071,17.40579"
       id="path14-1" />
    <path
       style="fill:#000000;fill-opacity:1;stroke:#000000;stroke-width:12.0856;stroke-linecap:round;stroke-linejoin:round;stroke-miterlimit:5.3;stroke-dasharray:none;stroke-opacity:1;paint-order:markers fill stroke"
       d="m 556.29047,527.27727 -33.64239,-4.45191 c -32.98394,-11.56401 -51.18452,-36.02219 -64.30743,-64.90913 7.17821,26.95792 14.90484,53.64857 47.27005,68.33272 l 31.02147,15.48676"
       id="path14-1-1" />
    <ellipse
       style="fill:#17ff00;fill-opacity:1;stroke:#000000;stroke-width:12.7253;stroke-linecap:round;stroke-linejoin:round;stroke-miterlimit:5.3;stroke-dasharray:none;stroke-opacity:1;paint-order:markers fill stroke"
       id="path16"
       cx="452.54456"
       cy="603.96356"
       rx="19.294683"
       ry="23.084707" />
    <ellipse
       style="fill:#0d9500;fill-opacity:1;stroke:#000000;stroke-width:12.7253;stroke-linecap:round;stroke-linejoin:round;stroke-miterlimit:5.3;stroke-dasharray:none;stroke-opacity:1;paint-order:markers fill stroke"
       id="path16-0"
       cx="610.26337"
       cy="508.24057"
       rx="19.294683"
       ry="23.084707" />
    <ellipse
       style="fill:#0d9500;fill-opacity:1;stroke:#000000;stroke-width:12.7253;stroke-linecap:round;stroke-linejoin:round;stroke-miterlimit:5.3;stroke-dasharray:none;stroke-opacity:1;paint-order:markers fill stroke"
       id="path16-1"
       cx="607.97388"
       cy="665.37732"
       rx="19.294683"
       ry="23.084707" />
    <ellipse
       style="fill:#17ff00;fill-opacity:1;stroke:#000000;stroke-width:12.7253;stroke-linecap:round;stroke-linejoin:round;stroke-miterlimit:5.3;stroke-dasharray:none;stroke-opacity:1;paint-order:markers fill stroke"
       id="path16-9"
       cx="461.83218"
       cy="449.04721"
       rx="19.294683"
       ry="23.084707" />
    <circle
       style="fill:none;fill-opacity:1;stroke:#000000;stroke-width:12.7253;stroke-linecap:round;stroke-linejoin:round;stroke-miterlimit:5.3;stroke-dasharray:none;stroke-opacity:1;paint-order:markers fill stroke"
       id="path21"
       cx="544.86487"
       cy="541.03131"
       r="522.34735" />
  </g>
</svg>
